<svg xmlns="http://www.w3.org/2000/svg" xmlns:xlink="http://www.w3.org/1999/xlink" version="1.1" x="0px" y="0px" viewBox="0 0 100 125" style="enable-background:new 0 0 100 100;" xml:space="preserve"><path fill="#b00b00" d="M77.2,29.7h-4h-9.7l-1.2-8c-0.1-1-1-1.7-2-1.7H39.7c-1,0-1.8,0.7-2,1.7l-1.2,8h-9.7h-4c-1.1,0-2,0.9-2,2s0.9,2,2,2h2v40.7  c0,3.1,2.6,5.7,5.7,5.7h39c3.1,0,5.7-2.6,5.7-5.7V33.7h2c1.1,0,2-0.9,2-2S78.3,29.7,77.2,29.7z M41.4,24h17.2l0.8,5.7H40.5L41.4,24z   M71.2,74.3c0,0.9-0.8,1.7-1.7,1.7h-39c-0.9,0-1.7-0.8-1.7-1.7V33.7h9.4c0,0,0,0,0,0c0,0,0,0,0,0h33V74.3z M37.2,40.2  c1.1,0,2,0.9,2,2v25.3c0,1.1-0.9,2-2,2s-2-0.9-2-2V42.2C35.2,41.1,36.1,40.2,37.2,40.2z M48,67.5V42.2c0-1.1,0.9-2,2-2s2,0.9,2,2  v25.3c0,1.1-0.9,2-2,2S48,68.6,48,67.5z M60.8,67.5V42.2c0-1.1,0.9-2,2-2s2,0.9,2,2v25.3c0,1.1-0.9,2-2,2S60.8,68.6,60.8,67.5z"/></svg>