<svg xmlns="http://www.w3.org/2000/svg" xmlns:xlink="http://www.w3.org/1999/xlink" viewBox="0 0 100 125" version="1.1" x="0px" y="0px"><title>List v6.5</title><desc>Created with Sketch.</desc><g stroke="none" stroke-width="1" fill="none" fill-rule="evenodd"><g fill-rule="nonzero" fill="#000000"><path d="M39.5,52.5 C38.1192881,52.5 37,51.3807119 37,50 C37,48.6192881 38.1192881,47.5 39.5,47.5 L69.5,47.5 C70.8807119,47.5 72,48.6192881 72,50 C72,51.3807119 70.8807119,52.5 69.5,52.5 L39.5,52.5 Z M39.5,64.5 C38.1192881,64.5 37,63.3807119 37,62 C37,60.6192881 38.1192881,59.5 39.5,59.5 L69.5,59.5 C70.8807119,59.5 72,60.6192881 72,62 C72,63.3807119 70.8807119,64.5 69.5,64.5 L39.5,64.5 Z M39.5,40.5 C38.1192881,40.5 37,39.3807119 37,38 C37,36.6192881 38.1192881,35.5 39.5,35.5 L69.5,35.5 C70.8807119,35.5 72,36.6192881 72,38 C72,39.3807119 70.8807119,40.5 69.5,40.5 L39.5,40.5 Z M28,50 C28,48.3465171 29.3431458,47 31,47 C32.6534829,47 34,48.3431458 34,50 C34,51.6534829 32.6568542,53 31,53 C29.3465171,53 28,51.6568542 28,50 Z M28,62 C28,60.3465171 29.3431458,59 31,59 C32.6534829,59 34,60.3431458 34,62 C34,63.6534829 32.6568542,65 31,65 C29.3465171,65 28,63.6568542 28,62 Z M28,38 C28,36.3465171 29.3431458,35 31,35 C32.6534829,35 34,36.3431458 34,38 C34,39.6534829 32.6568542,41 31,41 C29.3465171,41 28,39.6568542 28,38 Z"/></g></g><text x="0" y="115" fill="#000000" font-size="5px" font-weight="bold" font-family="'Helvetica Neue', Helvetica, Arial-Unicode, Arial, Sans-serif">Created by Landan Lloyd</text><text x="0" y="120" fill="#000000" font-size="5px" font-weight="bold" font-family="'Helvetica Neue', Helvetica, Arial-Unicode, Arial, Sans-serif">from the Noun Project</text></svg>