<svg xmlns="http://www.w3.org/2000/svg" xmlns:xlink="http://www.w3.org/1999/xlink" viewBox="0 0 84 105" version="1.1" xml:space="preserve" style="" x="0px" y="0px" fill-rule="evenodd" clip-rule="evenodd" stroke-linejoin="round" stroke-miterlimit="1.41421"><path d="M41.836,0.111C64.932,0.111 83.683,18.884 83.683,42.008C83.683,65.132 64.932,83.906 41.836,83.906C18.74,83.906 -0.01,65.132 -0.01,42.008C-0.01,18.884 18.74,0.111 41.836,0.111ZM41.836,3.798C62.9,3.798 80.001,20.919 80.001,42.008C80.001,63.097 62.9,80.219 41.836,80.219C20.773,80.219 3.672,63.097 3.672,42.008C3.672,20.919 20.773,3.798 41.836,3.798Z" style="" fill="black"/><g transform="matrix(1.07338,-9.92388e-17,4.01694e-17,0.286229,-6.63544,30.2098)"><rect x="27.274" y="24.263" width="35.768" height="33.917" style="" fill="black"/></g></svg>